<svg width="511" height="464" viewBox="0 0 511 464" fill="none" xmlns="http://www.w3.org/2000/svg">
<mask id="path-1-outside-1_20_4" maskUnits="userSpaceOnUse" x="29" y="152" width="463" height="184" fill="black">
<rect fill="white" x="29" y="152" width="463" height="184"/>
<path d="M136.758 259.303L39.0596 300.325V269.693L103.562 245.538L102.618 247.09V243.514L103.562 244.999L39.0596 220.911V190.212L136.758 231.234V259.303ZM245.337 301V325.155H153.103V301H245.337ZM255.66 301V162.818H288.654V215.109H289.329C290.678 211.96 292.59 208.924 295.064 206C297.583 203.076 300.776 200.692 304.645 198.848C308.558 196.959 313.236 196.014 318.679 196.014C325.876 196.014 332.6 197.903 338.853 201.682C345.15 205.46 350.233 211.285 354.101 219.157C357.97 227.029 359.904 237.059 359.904 249.249C359.904 260.989 358.037 270.818 354.304 278.734C350.615 286.651 345.622 292.589 339.325 296.547C333.073 300.505 326.123 302.484 318.476 302.484C313.258 302.484 308.738 301.63 304.915 299.92C301.091 298.211 297.875 295.962 295.266 293.173C292.702 290.384 290.723 287.393 289.329 284.2H288.316V301H255.66ZM287.979 249.182C287.979 254.759 288.721 259.617 290.206 263.756C291.735 267.894 293.917 271.11 296.75 273.404C299.629 275.653 303.07 276.778 307.074 276.778C311.122 276.778 314.563 275.653 317.397 273.404C320.231 271.11 322.367 267.894 323.807 263.756C325.291 259.617 326.033 254.759 326.033 249.182C326.033 243.604 325.291 238.769 323.807 234.675C322.367 230.582 320.231 227.411 317.397 225.162C314.608 222.913 311.167 221.788 307.074 221.788C303.025 221.788 299.584 222.89 296.75 225.094C293.917 227.299 291.735 230.447 290.206 234.54C288.721 238.634 287.979 243.514 287.979 249.182ZM377.193 301V162.818H410.187V215.109H410.862C412.211 211.96 414.123 208.924 416.597 206C419.116 203.076 422.309 200.692 426.178 198.848C430.091 196.959 434.769 196.014 440.212 196.014C447.409 196.014 454.134 197.903 460.386 201.682C466.683 205.46 471.766 211.285 475.635 219.157C479.503 227.029 481.437 237.059 481.437 249.249C481.437 260.989 479.57 270.818 475.837 278.734C472.148 286.651 467.156 292.589 460.858 296.547C454.606 300.505 447.656 302.484 440.009 302.484C434.792 302.484 430.271 301.63 426.448 299.92C422.624 298.211 419.408 295.962 416.799 293.173C414.235 290.384 412.256 287.393 410.862 284.2H409.85V301H377.193ZM409.512 249.182C409.512 254.759 410.255 259.617 411.739 263.756C413.268 267.894 415.45 271.11 418.284 273.404C421.162 275.653 424.603 276.778 428.607 276.778C432.655 276.778 436.096 275.653 438.93 273.404C441.764 271.11 443.9 267.894 445.34 263.756C446.824 259.617 447.566 254.759 447.566 249.182C447.566 243.604 446.824 238.769 445.34 234.675C443.9 230.582 441.764 227.411 438.93 225.162C436.141 222.913 432.7 221.788 428.607 221.788C424.559 221.788 421.117 222.89 418.284 225.094C415.45 227.299 413.268 230.447 411.739 234.54C410.255 238.634 409.512 243.514 409.512 249.182Z"/>
</mask>
<path d="M136.758 259.303L39.0596 300.325V269.693L103.562 245.538L102.618 247.09V243.514L103.562 244.999L39.0596 220.911V190.212L136.758 231.234V259.303ZM245.337 301V325.155H153.103V301H245.337ZM255.66 301V162.818H288.654V215.109H289.329C290.678 211.96 292.59 208.924 295.064 206C297.583 203.076 300.776 200.692 304.645 198.848C308.558 196.959 313.236 196.014 318.679 196.014C325.876 196.014 332.6 197.903 338.853 201.682C345.15 205.46 350.233 211.285 354.101 219.157C357.97 227.029 359.904 237.059 359.904 249.249C359.904 260.989 358.037 270.818 354.304 278.734C350.615 286.651 345.622 292.589 339.325 296.547C333.073 300.505 326.123 302.484 318.476 302.484C313.258 302.484 308.738 301.63 304.915 299.92C301.091 298.211 297.875 295.962 295.266 293.173C292.702 290.384 290.723 287.393 289.329 284.2H288.316V301H255.66ZM287.979 249.182C287.979 254.759 288.721 259.617 290.206 263.756C291.735 267.894 293.917 271.11 296.75 273.404C299.629 275.653 303.07 276.778 307.074 276.778C311.122 276.778 314.563 275.653 317.397 273.404C320.231 271.11 322.367 267.894 323.807 263.756C325.291 259.617 326.033 254.759 326.033 249.182C326.033 243.604 325.291 238.769 323.807 234.675C322.367 230.582 320.231 227.411 317.397 225.162C314.608 222.913 311.167 221.788 307.074 221.788C303.025 221.788 299.584 222.89 296.75 225.094C293.917 227.299 291.735 230.447 290.206 234.54C288.721 238.634 287.979 243.514 287.979 249.182ZM377.193 301V162.818H410.187V215.109H410.862C412.211 211.96 414.123 208.924 416.597 206C419.116 203.076 422.309 200.692 426.178 198.848C430.091 196.959 434.769 196.014 440.212 196.014C447.409 196.014 454.134 197.903 460.386 201.682C466.683 205.46 471.766 211.285 475.635 219.157C479.503 227.029 481.437 237.059 481.437 249.249C481.437 260.989 479.57 270.818 475.837 278.734C472.148 286.651 467.156 292.589 460.858 296.547C454.606 300.505 447.656 302.484 440.009 302.484C434.792 302.484 430.271 301.63 426.448 299.92C422.624 298.211 419.408 295.962 416.799 293.173C414.235 290.384 412.256 287.393 410.862 284.2H409.85V301H377.193ZM409.512 249.182C409.512 254.759 410.255 259.617 411.739 263.756C413.268 267.894 415.45 271.11 418.284 273.404C421.162 275.653 424.603 276.778 428.607 276.778C432.655 276.778 436.096 275.653 438.93 273.404C441.764 271.11 443.9 267.894 445.34 263.756C446.824 259.617 447.566 254.759 447.566 249.182C447.566 243.604 446.824 238.769 445.34 234.675C443.9 230.582 441.764 227.411 438.93 225.162C436.141 222.913 432.7 221.788 428.607 221.788C424.559 221.788 421.117 222.89 418.284 225.094C415.45 227.299 413.268 230.447 411.739 234.54C410.255 238.634 409.512 243.514 409.512 249.182Z" fill="black"/>
<path d="M136.758 259.303L140.63 268.523L146.758 265.949V259.303H136.758ZM39.0596 300.325H29.0596V315.37L42.931 309.545L39.0596 300.325ZM39.0596 269.693L35.5526 260.328L29.0596 262.76V269.693H39.0596ZM103.562 245.538L112.104 250.738L127.144 226.029L100.055 236.173L103.562 245.538ZM102.618 247.09H92.6178V282.751L111.16 252.29L102.618 247.09ZM102.618 243.514L111.054 238.145L92.6178 209.174V243.514H102.618ZM103.562 244.999L100.064 254.367L128.021 264.807L111.999 239.63L103.562 244.999ZM39.0596 220.911H29.0596V227.851L35.5612 230.279L39.0596 220.911ZM39.0596 190.212L42.931 180.991L29.0596 175.167V190.212H39.0596ZM136.758 231.234H146.758V224.588L140.63 222.014L136.758 231.234ZM136.758 259.303L132.887 250.082L35.1881 291.105L39.0596 300.325L42.931 309.545L140.63 268.523L136.758 259.303ZM39.0596 300.325H49.0596V269.693H39.0596H29.0596V300.325H39.0596ZM39.0596 269.693L42.5665 279.058L107.069 254.903L103.562 245.538L100.055 236.173L35.5526 260.328L39.0596 269.693ZM103.562 245.538L95.0204 240.339L94.0758 241.891L102.618 247.09L111.16 252.29L112.104 250.738L103.562 245.538ZM102.618 247.09H112.618V243.514H102.618H92.6178V247.09H102.618ZM102.618 243.514L94.1812 248.883L95.1258 250.367L103.562 244.999L111.999 239.63L111.054 238.145L102.618 243.514ZM103.562 244.999L107.061 235.63L42.5579 211.543L39.0596 220.911L35.5612 230.279L100.064 254.367L103.562 244.999ZM39.0596 220.911H49.0596V190.212H39.0596H29.0596V220.911H39.0596ZM39.0596 190.212L35.1881 199.432L132.887 240.455L136.758 231.234L140.63 222.014L42.931 180.991L39.0596 190.212ZM136.758 231.234H126.758V259.303H136.758H146.758V231.234H136.758ZM245.337 301H255.337V291H245.337V301ZM245.337 325.155V335.155H255.337V325.155H245.337ZM153.103 325.155H143.103V335.155H153.103V325.155ZM153.103 301V291H143.103V301H153.103ZM245.337 301H235.337V325.155H245.337H255.337V301H245.337ZM245.337 325.155V315.155H153.103V325.155V335.155H245.337V325.155ZM153.103 325.155H163.103V301H153.103H143.103V325.155H153.103ZM153.103 301V311H245.337V301V291H153.103V301ZM255.66 301H245.66V311H255.66V301ZM255.66 162.818V152.818H245.66V162.818H255.66ZM288.654 162.818H298.654V152.818H288.654V162.818ZM288.654 215.109H278.654V225.109H288.654V215.109ZM289.329 215.109V225.109H295.923L298.52 219.048L289.329 215.109ZM295.064 206L287.488 199.473L287.459 199.507L287.43 199.541L295.064 206ZM304.645 198.848L308.948 207.875L308.97 207.864L308.992 207.854L304.645 198.848ZM338.853 201.682L333.681 210.24L333.694 210.249L333.708 210.257L338.853 201.682ZM354.101 219.157L363.076 214.746L363.076 214.746L354.101 219.157ZM354.304 278.734L345.259 274.469L345.249 274.49L345.239 274.511L354.304 278.734ZM339.325 296.547L334.003 288.081L333.99 288.089L333.976 288.098L339.325 296.547ZM304.915 299.92L300.833 309.05L300.833 309.05L304.915 299.92ZM295.266 293.173L287.904 299.941L287.934 299.973L287.963 300.005L295.266 293.173ZM289.329 284.2L298.493 280.198L295.874 274.2H289.329V284.2ZM288.316 284.2V274.2H278.316V284.2H288.316ZM288.316 301V311H298.316V301H288.316ZM290.206 263.756L280.793 267.132L280.809 267.177L280.826 267.222L290.206 263.756ZM296.75 273.404L290.458 281.177L290.526 281.231L290.594 281.284L296.75 273.404ZM317.397 273.404L323.613 281.237L323.651 281.207L323.689 281.177L317.397 273.404ZM323.807 263.756L314.394 260.379L314.377 260.425L314.362 260.47L323.807 263.756ZM323.807 234.675L314.373 237.993L314.389 238.039L314.406 238.085L323.807 234.675ZM317.397 225.162L311.119 232.946L311.15 232.971L311.18 232.995L317.397 225.162ZM296.75 225.094L290.611 217.201L290.611 217.201L296.75 225.094ZM290.206 234.54L280.838 231.041L280.821 231.086L280.805 231.131L290.206 234.54ZM255.66 301H265.66V162.818H255.66H245.66V301H255.66ZM255.66 162.818V172.818H288.654V162.818V152.818H255.66V162.818ZM288.654 162.818H278.654V215.109H288.654H298.654V162.818H288.654ZM288.654 215.109V225.109H289.329V215.109V205.109H288.654V215.109ZM289.329 215.109L298.52 219.048C299.435 216.912 300.79 214.713 302.698 212.459L295.064 206L287.43 199.541C284.389 203.134 281.921 207.007 280.137 211.169L289.329 215.109ZM295.064 206L302.64 212.527C304.158 210.765 306.193 209.188 308.948 207.875L304.645 198.848L300.341 189.821C295.359 192.196 291.008 195.387 287.488 199.473L295.064 206ZM304.645 198.848L308.992 207.854C311.252 206.763 314.371 206.014 318.679 206.014V196.014V186.014C312.101 186.014 305.864 187.155 300.297 189.842L304.645 198.848ZM318.679 196.014V206.014C324.024 206.014 328.964 207.39 333.681 210.24L338.853 201.682L344.025 193.123C336.237 188.417 327.728 186.014 318.679 186.014V196.014ZM338.853 201.682L333.708 210.257C338.057 212.866 341.94 217.084 345.126 223.567L354.101 219.157L363.076 214.746C358.526 205.487 352.243 198.054 343.998 193.107L338.853 201.682ZM354.101 219.157L345.126 223.567C348.11 229.639 349.904 238.028 349.904 249.249H359.904H369.904C369.904 236.091 367.829 224.418 363.076 214.746L354.101 219.157ZM359.904 249.249H349.904C349.904 259.993 348.187 268.26 345.259 274.469L354.304 278.734L363.348 283C367.887 273.375 369.904 261.986 369.904 249.249H359.904ZM354.304 278.734L345.239 274.511C342.22 280.992 338.404 285.315 334.003 288.081L339.325 296.547L344.647 305.013C352.841 299.863 359.011 292.31 363.368 282.958L354.304 278.734ZM339.325 296.547L333.976 288.098C329.379 291.008 324.296 292.484 318.476 292.484V302.484V312.484C327.95 312.484 336.766 310.002 344.674 304.996L339.325 296.547ZM318.476 302.484V292.484C314.329 292.484 311.26 291.804 308.996 290.791L304.915 299.92L300.833 309.05C306.215 311.456 312.188 312.484 318.476 312.484V302.484ZM304.915 299.92L308.996 290.791C306.27 289.573 304.183 288.067 302.569 286.342L295.266 293.173L287.963 300.005C291.567 303.857 295.912 306.85 300.833 309.05L304.915 299.92ZM295.266 293.173L302.628 286.405C300.749 284.361 299.407 282.291 298.493 280.198L289.329 284.2L280.164 288.201C282.039 292.495 284.656 296.408 287.904 299.941L295.266 293.173ZM289.329 284.2V274.2H288.316V284.2V294.2H289.329V284.2ZM288.316 284.2H278.316V301H288.316H298.316V284.2H288.316ZM288.316 301V291H255.66V301V311H288.316V301ZM287.979 249.182H277.979C277.979 255.615 278.831 261.664 280.793 267.132L290.206 263.756L299.618 260.379C298.611 257.571 297.979 253.904 297.979 249.182H287.979ZM290.206 263.756L280.826 267.222C282.847 272.693 285.96 277.535 290.458 281.177L296.75 273.404L303.042 265.632C301.874 264.686 300.623 263.095 299.586 260.289L290.206 263.756ZM296.75 273.404L290.594 281.284C295.402 285.041 301.066 286.778 307.074 286.778V276.778V266.778C305.074 266.778 303.857 266.266 302.907 265.524L296.75 273.404ZM307.074 276.778V286.778C313.095 286.778 318.801 285.056 323.613 281.237L317.397 273.404L311.18 265.571C310.325 266.25 309.149 266.778 307.074 266.778V276.778ZM317.397 273.404L323.689 281.177C328.24 277.492 331.324 272.582 333.252 267.041L323.807 263.756L314.362 260.47C313.41 263.206 312.221 264.728 311.105 265.632L317.397 273.404ZM323.807 263.756L333.219 267.132C335.181 261.664 336.033 255.615 336.033 249.182H326.033H316.033C316.033 253.904 315.401 257.571 314.394 260.379L323.807 263.756ZM326.033 249.182H336.033C336.033 242.753 335.182 236.711 333.208 231.266L323.807 234.675L314.406 238.085C315.4 240.826 316.033 244.456 316.033 249.182H326.033ZM323.807 234.675L333.24 231.358C331.301 225.844 328.195 220.965 323.613 217.329L317.397 225.162L311.18 232.995C312.266 233.857 313.433 235.32 314.373 237.993L323.807 234.675ZM317.397 225.162L323.674 217.378C318.858 213.493 313.108 211.788 307.074 211.788V221.788V231.788C309.226 231.788 310.358 232.332 311.119 232.946L317.397 225.162ZM307.074 221.788V211.788C301.1 211.788 295.422 213.459 290.611 217.201L296.75 225.094L302.89 232.988C303.746 232.322 304.95 231.788 307.074 231.788V221.788ZM296.75 225.094L290.611 217.201C286.026 220.767 282.875 225.59 280.838 231.041L290.206 234.54L299.573 238.04C300.595 235.305 301.807 233.83 302.89 232.988L296.75 225.094ZM290.206 234.54L280.805 231.131C278.825 236.591 277.979 242.684 277.979 249.182H287.979H297.979C297.979 244.345 298.618 240.676 299.607 237.95L290.206 234.54ZM377.193 301H367.193V311H377.193V301ZM377.193 162.818V152.818H367.193V162.818H377.193ZM410.187 162.818H420.187V152.818H410.187V162.818ZM410.187 215.109H400.187V225.109H410.187V215.109ZM410.862 215.109V225.109H417.456L420.053 219.048L410.862 215.109ZM416.597 206L409.021 199.473L408.992 199.507L408.963 199.541L416.597 206ZM426.178 198.848L430.481 207.875L430.503 207.864L430.525 207.854L426.178 198.848ZM460.386 201.682L455.214 210.24L455.227 210.249L455.241 210.257L460.386 201.682ZM475.635 219.157L484.609 214.746L484.609 214.746L475.635 219.157ZM475.837 278.734L466.792 274.469L466.782 274.49L466.772 274.511L475.837 278.734ZM460.858 296.547L455.537 288.081L455.523 288.089L455.509 288.098L460.858 296.547ZM426.448 299.92L422.366 309.05L422.366 309.05L426.448 299.92ZM416.799 293.173L409.438 299.941L409.467 299.973L409.497 300.005L416.799 293.173ZM410.862 284.2L420.026 280.198L417.407 274.2H410.862V284.2ZM409.85 284.2V274.2H399.85V284.2H409.85ZM409.85 301V311H419.85V301H409.85ZM411.739 263.756L402.326 267.132L402.342 267.177L402.359 267.222L411.739 263.756ZM418.284 273.404L411.992 281.177L412.059 281.231L412.127 281.284L418.284 273.404ZM438.93 273.404L445.147 281.237L445.184 281.207L445.222 281.177L438.93 273.404ZM445.34 263.756L435.927 260.379L435.911 260.425L435.895 260.47L445.34 263.756ZM445.34 234.675L435.906 237.993L435.922 238.039L435.939 238.085L445.34 234.675ZM438.93 225.162L432.652 232.946L432.683 232.971L432.713 232.995L438.93 225.162ZM418.284 225.094L412.144 217.201L412.144 217.201L418.284 225.094ZM411.739 234.54L402.371 231.041L402.354 231.086L402.338 231.131L411.739 234.54ZM377.193 301H387.193V162.818H377.193H367.193V301H377.193ZM377.193 162.818V172.818H410.187V162.818V152.818H377.193V162.818ZM410.187 162.818H400.187V215.109H410.187H420.187V162.818H410.187ZM410.187 215.109V225.109H410.862V215.109V205.109H410.187V215.109ZM410.862 215.109L420.053 219.048C420.968 216.912 422.323 214.713 424.231 212.459L416.597 206L408.963 199.541C405.922 203.134 403.454 207.007 401.67 211.169L410.862 215.109ZM416.597 206L424.173 212.527C425.691 210.765 427.726 209.188 430.481 207.875L426.178 198.848L421.874 189.821C416.893 192.196 412.541 195.387 409.021 199.473L416.597 206ZM426.178 198.848L430.525 207.854C432.785 206.763 435.905 206.014 440.212 206.014V196.014V186.014C433.634 186.014 427.398 187.155 421.83 189.842L426.178 198.848ZM440.212 196.014V206.014C445.557 206.014 450.497 207.39 455.214 210.24L460.386 201.682L465.558 193.123C457.77 188.417 449.261 186.014 440.212 186.014V196.014ZM460.386 201.682L455.241 210.257C459.59 212.866 463.473 217.084 466.66 223.567L475.635 219.157L484.609 214.746C480.059 205.487 473.777 198.054 465.531 193.107L460.386 201.682ZM475.635 219.157L466.66 223.567C469.643 229.639 471.437 238.028 471.437 249.249H481.437H491.437C491.437 236.091 489.362 224.418 484.609 214.746L475.635 219.157ZM481.437 249.249H471.437C471.437 259.993 469.72 268.26 466.792 274.469L475.837 278.734L484.882 283C489.42 273.375 491.437 261.986 491.437 249.249H481.437ZM475.837 278.734L466.772 274.511C463.753 280.992 459.937 285.315 455.537 288.081L460.858 296.547L466.18 305.013C474.374 299.863 480.544 292.31 484.901 282.958L475.837 278.734ZM460.858 296.547L455.509 288.098C450.912 291.008 445.829 292.484 440.009 292.484V302.484V312.484C449.484 312.484 458.299 310.002 466.207 304.996L460.858 296.547ZM440.009 302.484V292.484C435.862 292.484 432.794 291.804 430.529 290.791L426.448 299.92L422.366 309.05C427.749 311.456 433.721 312.484 440.009 312.484V302.484ZM426.448 299.92L430.529 290.791C427.804 289.573 425.716 288.067 424.102 286.342L416.799 293.173L409.497 300.005C413.1 303.857 417.445 306.85 422.366 309.05L426.448 299.92ZM416.799 293.173L424.161 286.405C422.282 284.361 420.94 282.291 420.026 280.198L410.862 284.2L401.697 288.201C403.572 292.495 406.189 296.408 409.438 299.941L416.799 293.173ZM410.862 284.2V274.2H409.85V284.2V294.2H410.862V284.2ZM409.85 284.2H399.85V301H409.85H419.85V284.2H409.85ZM409.85 301V291H377.193V301V311H409.85V301ZM409.512 249.182H399.512C399.512 255.615 400.365 261.664 402.326 267.132L411.739 263.756L421.152 260.379C420.144 257.571 419.512 253.904 419.512 249.182H409.512ZM411.739 263.756L402.359 267.222C404.381 272.693 407.493 277.535 411.992 281.177L418.284 273.404L424.576 265.632C423.407 264.686 422.156 263.095 421.119 260.289L411.739 263.756ZM418.284 273.404L412.127 281.284C416.935 285.041 422.599 286.778 428.607 286.778V276.778V266.778C426.608 266.778 425.39 266.266 424.44 265.524L418.284 273.404ZM428.607 276.778V286.778C434.628 286.778 440.334 285.056 445.147 281.237L438.93 273.404L432.713 265.571C431.858 266.25 430.682 266.778 428.607 266.778V276.778ZM438.93 273.404L445.222 281.177C449.773 277.492 452.857 272.582 454.785 267.041L445.34 263.756L435.895 260.47C434.943 263.206 433.755 264.728 432.638 265.632L438.93 273.404ZM445.34 263.756L454.753 267.132C456.714 261.664 457.566 255.615 457.566 249.182H447.566H437.566C437.566 253.904 436.934 257.571 435.927 260.379L445.34 263.756ZM447.566 249.182H457.566C457.566 242.753 456.715 236.711 454.741 231.266L445.34 234.675L435.939 238.085C436.933 240.826 437.566 244.456 437.566 249.182H447.566ZM445.34 234.675L454.773 231.358C452.835 225.844 449.728 220.965 445.147 217.329L438.93 225.162L432.713 232.995C433.799 233.857 434.966 235.32 435.906 237.993L445.34 234.675ZM438.93 225.162L445.207 217.378C440.391 213.493 434.641 211.788 428.607 211.788V221.788V231.788C430.759 231.788 431.891 232.332 432.652 232.946L438.93 225.162ZM428.607 221.788V211.788C422.634 211.788 416.956 213.459 412.144 217.201L418.284 225.094L424.423 232.988C425.279 232.322 426.483 231.788 428.607 231.788V221.788ZM418.284 225.094L412.144 217.201C407.56 220.767 404.408 225.59 402.371 231.041L411.739 234.54L421.106 238.04C422.129 235.305 423.34 233.83 424.423 232.988L418.284 225.094ZM411.739 234.54L402.338 231.131C400.358 236.591 399.512 242.684 399.512 249.182H409.512H419.512C419.512 244.345 420.151 240.676 421.14 237.95L411.739 234.54Z" fill="white" mask="url(#path-1-outside-1_20_4)"/>
</svg>
