<svg width="500" height="510" viewBox="0 0 500 510" fill="none" xmlns="http://www.w3.org/2000/svg">
<rect x="5" y="15" width="490" height="490" rx="245" fill="white" stroke="black" stroke-width="10"/>
<path d="M156.257 272.081L79.126 304.467V280.284L130.049 261.214L129.304 262.44V259.616L130.049 260.788L79.126 241.772V217.536L156.257 249.922V272.081ZM241.977 305V324.07H169.161V305H241.977ZM250.127 305V195.909H276.174V237.191H276.707C277.772 234.705 279.281 232.308 281.234 230C283.223 227.692 285.744 225.81 288.798 224.354C291.888 222.862 295.581 222.116 299.878 222.116C305.56 222.116 310.869 223.608 315.805 226.591C320.776 229.574 324.789 234.173 327.843 240.387C330.897 246.602 332.424 254.521 332.424 264.144C332.424 273.413 330.95 281.172 328.003 287.422C325.091 293.672 321.149 298.359 316.178 301.484C311.242 304.609 305.755 306.172 299.718 306.172C295.599 306.172 292.03 305.497 289.011 304.148C285.993 302.798 283.454 301.023 281.394 298.821C279.37 296.619 277.808 294.258 276.707 291.737H275.908V305H250.127ZM275.641 264.091C275.641 268.494 276.227 272.33 277.399 275.597C278.607 278.864 280.329 281.403 282.566 283.214C284.839 284.989 287.555 285.877 290.716 285.877C293.912 285.877 296.629 284.989 298.866 283.214C301.103 281.403 302.79 278.864 303.926 275.597C305.098 272.33 305.684 268.494 305.684 264.091C305.684 259.687 305.098 255.87 303.926 252.638C302.79 249.407 301.103 246.903 298.866 245.128C296.664 243.352 293.948 242.464 290.716 242.464C287.52 242.464 284.803 243.335 282.566 245.075C280.329 246.815 278.607 249.3 277.399 252.532C276.227 255.763 275.641 259.616 275.641 264.091ZM346.074 305V195.909H372.121V237.191H372.654C373.719 234.705 375.229 232.308 377.182 230C379.17 227.692 381.692 225.81 384.746 224.354C387.835 222.862 391.528 222.116 395.825 222.116C401.507 222.116 406.816 223.608 411.752 226.591C416.724 229.574 420.736 234.173 423.79 240.387C426.844 246.602 428.371 254.521 428.371 264.144C428.371 273.413 426.898 281.172 423.95 287.422C421.038 293.672 417.097 298.359 412.125 301.484C407.189 304.609 401.702 306.172 395.665 306.172C391.546 306.172 387.977 305.497 384.959 304.148C381.94 302.798 379.401 301.023 377.342 298.821C375.317 296.619 373.755 294.258 372.654 291.737H371.855V305H346.074ZM371.589 264.091C371.589 268.494 372.175 272.33 373.347 275.597C374.554 278.864 376.276 281.403 378.513 283.214C380.786 284.989 383.503 285.877 386.663 285.877C389.859 285.877 392.576 284.989 394.813 283.214C397.05 281.403 398.737 278.864 399.873 275.597C401.045 272.33 401.631 268.494 401.631 264.091C401.631 259.687 401.045 255.87 399.873 252.638C398.737 249.407 397.05 246.903 394.813 245.128C392.611 243.352 389.895 242.464 386.663 242.464C383.467 242.464 380.751 243.335 378.513 245.075C376.276 246.815 374.554 249.3 373.347 252.532C372.175 255.763 371.589 259.616 371.589 264.091Z" fill="black"/>
</svg>
